<svg width="14" height="10" viewBox="0 0 14 10" fill="none" xmlns="http://www.w3.org/2000/svg">
<path d="M12.6034 4.15947C12.8565 4.11009 13.0839 3.97867 13.2473 3.78745C13.4107 3.59622 13.4999 3.35691 13.5 3.11001V1.7809C13.5 1.49674 13.3819 1.22422 13.1718 1.02329C12.9616 0.822355 12.6765 0.709473 12.3793 0.709473H1.62069C1.32346 0.709473 1.03841 0.822355 0.828242 1.02329C0.618072 1.22422 0.5 1.49674 0.5 1.7809V3.11001C0.500076 3.35691 0.589346 3.59622 0.752712 3.78745C0.916078 3.97867 1.14351 4.11009 1.39655 4.15947C1.64989 4.20865 1.87766 4.34006 2.04126 4.53142C2.20486 4.72278 2.29423 4.96233 2.29423 5.20947C2.29423 5.45662 2.20486 5.69617 2.04126 5.88753C1.87766 6.07889 1.64989 6.21029 1.39655 6.25947C1.14351 6.30885 0.916078 6.44027 0.752712 6.6315C0.589346 6.82273 0.500076 7.06203 0.5 7.30894V8.63804C0.5 8.9222 0.618072 9.19473 0.828242 9.39566C1.03841 9.59659 1.32346 9.70947 1.62069 9.70947H12.3793C12.6765 9.70947 12.9616 9.59659 13.1718 9.39566C13.3819 9.19473 13.5 8.9222 13.5 8.63804V7.30894C13.4999 7.06203 13.4107 6.82273 13.2473 6.6315C13.0839 6.44027 12.8565 6.30885 12.6034 6.25947C12.3501 6.21029 12.1223 6.07889 11.9587 5.88753C11.7951 5.69617 11.7058 5.45662 11.7058 5.20947C11.7058 4.96233 11.7951 4.72278 11.9587 4.53142C12.1223 4.34006 12.3501 4.20865 12.6034 4.15947ZM1.84483 7.47769C2.36151 7.33802 2.81637 7.04091 3.1403 6.63151C3.46423 6.22211 3.63951 5.72281 3.63951 5.20947C3.63951 4.69614 3.46423 4.19683 3.1403 3.78744C2.81637 3.37804 2.36151 3.08093 1.84483 2.94126V1.99519H4.53448V8.42376H1.84483V7.47769ZM12.1552 7.47769V8.42376H5.87931V1.99519H12.1552V2.94126C11.6385 3.08093 11.1836 3.37804 10.8597 3.78744C10.5358 4.19683 10.3605 4.69614 10.3605 5.20947C10.3605 5.72281 10.5358 6.22211 10.8597 6.63151C11.1836 7.04091 11.6385 7.33802 12.1552 7.47769Z" fill="white"/>
</svg>
