<svg width="12" height="11" viewBox="0 0 12 11" fill="none" xmlns="http://www.w3.org/2000/svg">
<path d="M1.66663 10.7095C1.38885 10.7095 1.15274 10.6123 0.958293 10.4178C0.763848 10.2234 0.666626 9.98725 0.666626 9.70947V1.70947C0.666626 1.43169 0.763848 1.19558 0.958293 1.00114C1.15274 0.806695 1.38885 0.709473 1.66663 0.709473H10.3333C10.6111 0.709473 10.8472 0.806695 11.0416 1.00114C11.2361 1.19558 11.3333 1.43169 11.3333 1.70947V9.70947C11.3333 9.98725 11.2361 10.2234 11.0416 10.4178C10.8472 10.6123 10.6111 10.7095 10.3333 10.7095H1.66663ZM1.99996 5.04281H5.33329V2.04281H1.99996V5.04281ZM6.66663 5.04281H9.99996V2.04281H6.66663V5.04281ZM5.33329 9.37614V6.37614H1.99996V9.37614H5.33329ZM6.66663 9.37614H9.99996V6.37614H6.66663V9.37614Z" fill="white"/>
</svg>
