<svg width="12" height="12" viewBox="0 0 12 12" fill="none" xmlns="http://www.w3.org/2000/svg">
<path fill-rule="evenodd" clip-rule="evenodd" d="M7.26923 3.24793C7.26923 3.94891 6.70098 4.51717 6 4.51717C5.29902 4.51717 4.73077 3.94891 4.73077 3.24793C4.73077 2.54696 5.29902 1.9787 6 1.9787C6.70098 1.9787 7.26923 2.54696 7.26923 3.24793ZM8.53847 3.24793C8.53847 4.64989 7.40196 5.7864 6 5.7864C4.59805 5.7864 3.46154 4.64989 3.46154 3.24793C3.46154 1.84598 4.59805 0.709473 6 0.709473C7.40196 0.709473 8.53847 1.84598 8.53847 3.24793ZM9.33366 8.79927C9.53954 9.00515 9.6818 9.31392 9.75393 9.83257C9.78129 10.0293 9.79596 10.2298 9.80352 10.4403H2.19658C2.20418 10.2299 2.21889 10.0294 2.24628 9.83285C2.31852 9.3142 2.46088 9.00527 2.66688 8.79927C2.91087 8.55528 3.37807 8.31308 4.0532 8.13929C4.70319 7.97198 5.41439 7.90179 5.99998 7.90179C6.58557 7.90179 7.29695 7.97198 7.9471 8.13931C8.62245 8.31312 9.08973 8.55534 9.33366 8.79927ZM10.2311 7.90179C10.89 8.56069 11.042 9.48634 11.0731 10.4403C11.0747 10.4872 11.0759 10.5342 11.0769 10.5812C11.0822 10.8343 11.0804 11.0885 11.0787 11.3395V11.3396C11.0778 11.4639 11.0769 11.5873 11.0769 11.7095L0.923051 11.7095C0.923051 11.5879 0.922188 11.465 0.92132 11.3413C0.919567 11.0914 0.917791 10.8383 0.923051 10.5863C0.924068 10.5376 0.925349 10.4889 0.926944 10.4403C0.958235 9.48634 1.11049 8.56069 1.76939 7.90179C2.7215 6.94968 4.65349 6.63256 5.99998 6.63256C7.34646 6.63256 9.27904 6.94968 10.2311 7.90179Z" fill="white"/>
</svg>
