<svg width="12" height="12" viewBox="0 0 12 12" fill="none" xmlns="http://www.w3.org/2000/svg">
<path d="M4.5528 1.4814V1.28842C4.5528 1.13487 4.61379 0.987615 4.72237 0.879042C4.83095 0.770469 4.97821 0.709473 5.13177 0.709473C5.28532 0.709473 5.43258 0.770469 5.54116 0.879042C5.64974 0.987615 5.71074 1.13487 5.71074 1.28842V1.4814C5.71074 1.63495 5.64974 1.7822 5.54116 1.89078C5.43258 1.99935 5.28532 2.06035 5.13177 2.06035C4.97821 2.06035 4.83095 1.99935 4.72237 1.89078C4.61379 1.7822 4.5528 1.63495 4.5528 1.4814ZM1.27196 5.91998C1.42551 5.91998 1.57278 5.85899 1.68136 5.75041C1.78993 5.64184 1.85093 5.49458 1.85093 5.34104C1.85093 5.18749 1.78993 5.04023 1.68136 4.93166C1.57278 4.82309 1.42551 4.76209 1.27196 4.76209H1.07897C0.925418 4.76209 0.778155 4.82309 0.669577 4.93166C0.560999 5.04023 0.5 5.18749 0.5 5.34104C0.5 5.49458 0.560999 5.64184 0.669577 5.75041C0.778155 5.85899 0.925418 5.91998 1.07897 5.91998H1.27196ZM6.68534 2.60938C6.75747 2.63343 6.83364 2.64303 6.90949 2.63765C6.98533 2.63226 7.05938 2.61198 7.12739 2.57798C7.1954 2.54398 7.25605 2.49691 7.30586 2.43947C7.35568 2.38202 7.3937 2.31533 7.41774 2.2432L7.61073 1.66425C7.65395 1.52007 7.63932 1.36473 7.56995 1.23116C7.50057 1.09758 7.3819 0.996275 7.23908 0.948715C7.09627 0.901155 6.94055 0.91108 6.80494 0.976387C6.66932 1.04169 6.56447 1.15725 6.51261 1.29855L6.31962 1.8775C6.27118 2.02305 6.28248 2.18187 6.35105 2.3191C6.41962 2.45632 6.53985 2.56073 6.68534 2.60938ZM1.66759 6.52884L1.08862 6.72182C1.01438 6.74408 0.945365 6.78101 0.885665 6.83043C0.825965 6.87986 0.776797 6.94076 0.741074 7.00954C0.705351 7.07832 0.683802 7.15357 0.677703 7.23083C0.671605 7.30809 0.681081 7.38579 0.705571 7.45932C0.73006 7.53285 0.769065 7.60071 0.820271 7.65889C0.871478 7.71707 0.933844 7.76437 1.00367 7.798C1.0735 7.83162 1.14937 7.85089 1.22678 7.85465C1.3042 7.85841 1.38158 7.84659 1.45434 7.81989L2.03331 7.62691C2.10755 7.60465 2.17656 7.56772 2.23626 7.51829C2.29596 7.46887 2.34513 7.40797 2.38085 7.33919C2.41658 7.27041 2.43813 7.19516 2.44423 7.1179C2.45032 7.04064 2.44085 6.96294 2.41636 6.88941C2.39187 6.81588 2.35286 6.74802 2.30166 6.68984C2.25045 6.63166 2.18808 6.58436 2.11826 6.55073C2.04843 6.51711 1.97256 6.49784 1.89514 6.49408C1.81773 6.49032 1.74035 6.50214 1.66759 6.52884ZM11.2172 9.4501C11.3069 9.53971 11.378 9.6461 11.4265 9.76319C11.475 9.88028 11.5 10.0058 11.5 10.1325C11.5 10.2593 11.475 10.3848 11.4265 10.5019C11.378 10.619 11.3069 10.7254 11.2172 10.815L10.6055 11.4267C10.5158 11.5164 10.4095 11.5875 10.2924 11.636C10.1753 11.6845 10.0497 11.7095 9.92299 11.7095C9.79624 11.7095 9.67073 11.6845 9.55363 11.636C9.43653 11.5875 9.33014 11.5164 9.24053 11.4267L7.04478 9.23107L6.21927 11.1305C6.14534 11.3028 6.02235 11.4496 5.86561 11.5525C5.70887 11.6555 5.52531 11.71 5.33778 11.7094H5.28954C5.09438 11.7009 4.90652 11.6328 4.75125 11.5143C4.59598 11.3958 4.48075 11.2325 4.42108 11.0465L1.89918 3.32245C1.84489 3.15353 1.83823 2.97292 1.87993 2.80047C1.92163 2.62801 2.01007 2.47039 2.13553 2.34494C2.261 2.21948 2.41862 2.13104 2.59108 2.08934C2.76355 2.04765 2.94417 2.05431 3.11309 2.10859L10.8366 4.63038C11.0214 4.69194 11.1832 4.80798 11.3008 4.96325C11.4184 5.11853 11.4863 5.30576 11.4955 5.50033C11.5047 5.69489 11.4548 5.88768 11.3523 6.05335C11.2499 6.21901 11.0997 6.34979 10.9215 6.42849L9.02197 7.25445L11.2172 9.4501ZM10.2619 10.1323L8.0025 7.87248C7.89144 7.76126 7.80923 7.62461 7.76302 7.47439C7.7168 7.32418 7.70798 7.16494 7.73732 7.01054C7.76666 6.85614 7.83328 6.71124 7.93137 6.58845C8.02947 6.46565 8.15608 6.36867 8.30019 6.30595L9.98885 5.57213L3.11936 3.32872L5.36239 10.1974L6.09624 8.50883C6.15903 8.36475 6.25607 8.23819 6.37892 8.14015C6.50177 8.04211 6.64671 7.97556 6.80113 7.94629C6.86059 7.93478 6.92102 7.92896 6.98158 7.92892C7.23731 7.92911 7.48251 8.03079 7.66332 8.21164L9.92323 10.4715L10.2619 10.1323Z" fill="white"/>
</svg>
