<svg width="12" height="14" viewBox="0 0 12 14" fill="none" xmlns="http://www.w3.org/2000/svg">
<path d="M1.33333 13.7095C0.966667 13.7095 0.652778 13.5788 0.391667 13.3173C0.130556 13.0559 0 12.7416 0 12.3745V9.33744L1.83333 7.25154L2.78333 8.20271L1.45 9.70455H10.55L9.25 8.23608L10.2 7.28491L12 9.33744V12.3745C12 12.7416 11.8694 13.0559 11.6083 13.3173C11.3472 13.5788 11.0333 13.7095 10.6667 13.7095H1.33333ZM1.33333 12.3745H10.6667V11.0395H1.33333V12.3745ZM5.08333 8.61989L2.73333 6.26699C2.47778 6.01113 2.35278 5.69685 2.35833 5.32417C2.36389 4.95149 2.49444 4.63722 2.75 4.38135L6.01667 1.11066C6.27222 0.85479 6.58889 0.721293 6.96667 0.710168C7.34444 0.699043 7.66111 0.821416 7.91667 1.07729L10.2667 3.43018C10.5222 3.68605 10.6556 3.99754 10.6667 4.36466C10.6778 4.73178 10.5556 5.04327 10.3 5.29914L6.96667 8.63657C6.71111 8.89244 6.39722 9.0176 6.025 9.01203C5.65278 9.00647 5.33889 8.87576 5.08333 8.61989ZM9.33333 4.38135L6.98333 2.02845L3.68333 5.33251L6.03333 7.6854L9.33333 4.38135Z" fill="white"/>
</svg>
