<svg width="75" height="75" viewBox="0 0 75 75" fill="none" xmlns="http://www.w3.org/2000/svg">
<path d="M45.2488 7.89398L41.3416 31.2157L61.0578 18.1604L44.1887 34.7315L67.813 35.7585L44.4254 39.2493L62.9343 53.9662L41.9615 43.0434L48.2851 65.8289L37.7379 44.6647L29.4609 66.8155L33.3681 43.4938L13.6519 56.549L30.521 39.978L6.89664 38.951L30.2843 35.4602L11.7754 20.7432L32.7482 31.666L26.4246 8.88052L36.9717 30.0448L45.2488 7.89398Z" fill="#0080C9"/>
<path d="M37.3545 6.85474L39.6165 30.393L55.2819 12.6797L43.2765 33.0521L66.3617 27.9297L44.6745 37.3547L66.3617 46.7798L43.2765 41.6573L55.2819 62.0298L39.6165 44.3165L37.3545 67.8547L35.0925 44.3165L19.427 62.0298L31.4325 41.6573L8.34727 46.7798L30.0345 37.3547L8.34727 27.9297L31.4325 33.0521L19.427 12.6797L35.0925 30.393L37.3545 6.85474Z" fill="#FE6A35"/>
</svg>
